<?xml version="1.0" encoding="UTF-8" standalone="no"?>
<!-- Created with Inkscape (http://www.inkscape.org/) -->

<svg
   xmlns:dc="http://purl.org/dc/elements/1.1/"
   xmlns:cc="http://creativecommons.org/ns#"
   xmlns:rdf="http://www.w3.org/1999/02/22-rdf-syntax-ns#"
   xmlns:svg="http://www.w3.org/2000/svg"
   xmlns="http://www.w3.org/2000/svg"
   xmlns:sodipodi="http://sodipodi.sourceforge.net/DTD/sodipodi-0.dtd"
   xmlns:inkscape="http://www.inkscape.org/namespaces/inkscape"
   width="210mm"
   height="297mm"
   viewBox="0 0 210 297"
   version="1.1"
   id="svg1856"
   inkscape:version="0.92.3 (unknown)"
   sodipodi:docname="favicon.svg"
   inkscape:export-filename="/home/calle/Storage/pelican/exploring_microbes/content/images/favicon.png"
   inkscape:export-xdpi="300"
   inkscape:export-ydpi="300">
  <defs
     id="defs1850" />
  <sodipodi:namedview
     id="base"
     pagecolor="#ffffff"
     bordercolor="#666666"
     borderopacity="1.0"
     inkscape:pageopacity="0.0"
     inkscape:pageshadow="2"
     inkscape:zoom="0.35"
     inkscape:cx="-744.28572"
     inkscape:cy="-1497.1429"
     inkscape:document-units="mm"
     inkscape:current-layer="layer1"
     showgrid="false"
     inkscape:window-width="1920"
     inkscape:window-height="1025"
     inkscape:window-x="0"
     inkscape:window-y="29"
     inkscape:window-maximized="1" />
  <metadata
     id="metadata1853">
    <rdf:RDF>
      <cc:Work
         rdf:about="">
        <dc:format>image/svg+xml</dc:format>
        <dc:type
           rdf:resource="http://purl.org/dc/dcmitype/StillImage" />
        <dc:title />
      </cc:Work>
    </rdf:RDF>
  </metadata>
  <g
     inkscape:label="Layer 1"
     inkscape:groupmode="layer"
     id="layer1">
    <rect
       style="opacity:1;fill:#ffffff;fill-opacity:0.96566521;stroke:none;stroke-width:0.15640625;stroke-miterlimit:4;stroke-dasharray:none;stroke-dashoffset:0;stroke-opacity:1"
       id="rect2457"
       width="75"
       height="77.734344"
       x="-174.625"
       y="637.30725"
       ry="0.15096894" />
    <g
       id="g5850"
       transform="matrix(0.14583333,0,0,0.14583333,-172.32173,641.82163)"
       style="fill:#4d4d4d;fill-opacity:1">
      <g
         id="g5804"
         style="fill:#4d4d4d;fill-opacity:1">
        <g
           id="g5806"
           style="fill:#4d4d4d;fill-opacity:1">
          <path
             id="path5808"
             d="m 464.01104,406.87023 -111.315,-111.324 c -16.586,25.795 -38.536,47.734 -64.331,64.321 l 111.324,111.324 c 17.772,17.768 46.587,17.768 64.321,0 17.773,-17.739 17.773,-46.554 10e-4,-64.321 z"
             inkscape:connector-curvature="0"
             style="fill:#4d4d4d;fill-opacity:1" />
          <path
             id="path5810"
             d="M 363.909,181.955 C 363.909,81.473 282.44,0 181.956,0 81.474,0 0.001,81.473 0.001,181.955 c 0,100.482 81.473,181.951 181.955,181.951 100.484,0 181.953,-81.469 181.953,-181.951 z M 181.956,334.416 c -75.252,0 -152.464999,-77.208 -152.464999,-152.46 0,-75.252 77.212999,-152.464999 152.464999,-152.464999 75.25,0 152.468,77.212999 152.468,152.464999 0,75.252 -77.218,152.46 -152.468,152.46 z"
             inkscape:connector-curvature="0"
             sodipodi:nodetypes="ssssssssss"
             style="fill:#4d4d4d;fill-opacity:1" />
        </g>
      </g>
      <g
         id="g5814"
         style="fill:#4d4d4d;fill-opacity:1" />
      <g
         id="g5816"
         style="fill:#4d4d4d;fill-opacity:1" />
      <g
         id="g5818"
         style="fill:#4d4d4d;fill-opacity:1" />
      <g
         id="g5820"
         style="fill:#4d4d4d;fill-opacity:1" />
      <g
         id="g5822"
         style="fill:#4d4d4d;fill-opacity:1" />
      <g
         id="g5824"
         style="fill:#4d4d4d;fill-opacity:1" />
      <g
         id="g5826"
         style="fill:#4d4d4d;fill-opacity:1" />
      <g
         id="g5828"
         style="fill:#4d4d4d;fill-opacity:1" />
      <g
         id="g5830"
         style="fill:#4d4d4d;fill-opacity:1" />
      <g
         id="g5832"
         style="fill:#4d4d4d;fill-opacity:1" />
      <g
         id="g5834"
         style="fill:#4d4d4d;fill-opacity:1" />
      <g
         id="g5836"
         style="fill:#4d4d4d;fill-opacity:1" />
      <g
         id="g5838"
         style="fill:#4d4d4d;fill-opacity:1" />
      <g
         id="g5840"
         style="fill:#4d4d4d;fill-opacity:1" />
      <g
         id="g5842"
         style="fill:#4d4d4d;fill-opacity:1" />
    </g>
    <path
       style="fill:#ff9955;fill-opacity:1;stroke:none;stroke-width:0.44723478;stroke-miterlimit:4;stroke-dasharray:none;stroke-dashoffset:0;stroke-opacity:1"
       id="path5484-0-62-0-2-7-7-0-1"
       sodipodi:type="arc"
       sodipodi:cx="-156.26534"
       sodipodi:cy="655.09937"
       sodipodi:rx="3.3554192"
       sodipodi:ry="3.3554192"
       sodipodi:start="3.5680464"
       sodipodi:end="3.5609778"
       sodipodi:open="true"
       d="m -159.32024,653.71141 a 3.3554192,3.3554192 0 0 1 4.43746,-1.6694 3.3554192,3.3554192 0 0 1 1.67723,4.4345 3.3554192,3.3554192 0 0 1 -4.43152,1.68507 3.3554192,3.3554192 0 0 1 -1.6929,-4.42854"
       inkscape:export-xdpi="300"
       inkscape:export-ydpi="300" />
    <path
       style="fill:#ff9955;fill-opacity:1;stroke:none;stroke-width:0.44723478;stroke-miterlimit:4;stroke-dasharray:none;stroke-dashoffset:0;stroke-opacity:1"
       d="m -129.67986,660.44099 c 0.54366,1.32975 1.14823,2.86456 1.12602,4.36068 -0.022,1.49608 -1.99702,2.74837 -2.19161,4.19629 -0.19313,1.43844 1.46196,3.29065 1.13531,4.76131 -0.32668,1.47075 -1.30855,2.76521 -2.35403,3.77195 -0.53146,0.51186 -1.51853,0.67822 -2.13979,0.56686 -0.57061,-0.10225 -1.13603,-0.56382 -1.34248,-1.10548 -0.51179,-1.34231 1.47636,-2.48848 1.87875,-3.92743 0.40244,-1.43902 -0.78083,-3.17094 -0.56126,-4.59056 0.21955,-1.41968 1.8707,-2.71327 1.92194,-4.20648 0.0512,-1.49332 -1.49785,-3.18654 -0.60447,-4.3115 0.36058,-0.45396 1.03895,-0.72319 1.61374,-0.6483 0.62598,0.0817 1.27892,0.54835 1.51805,1.13242 z"
       id="rect5626-6-01-2-0-8-0-7"
       inkscape:connector-curvature="0"
       sodipodi:nodetypes="sssssssssssss"
       inkscape:export-xdpi="300"
       inkscape:export-ydpi="300" />
    <path
       inkscape:transform-center-y="-138.7925"
       inkscape:transform-center-x="-74.515616"
       style="fill:#ff9955;fill-opacity:1;stroke:none;stroke-width:0.44723478;stroke-miterlimit:4;stroke-dasharray:none;stroke-dashoffset:0;stroke-opacity:1"
       d="m -154.01947,661.63064 c 1.37512,-2.52263 4.14976,-4.28361 6.62843,-5.73648 2.4786,-1.45292 5.19125,-3.31983 8.06405,-3.28696 0.63129,0.007 1.48508,0.74855 1.79105,1.30089 0.2812,0.507 0.28047,1.23691 -0.009,1.73909 -1.43489,2.48918 -4.95739,2.90581 -7.43606,4.35868 -2.4787,1.45284 -4.56306,4.32274 -7.436,4.35858 -0.57967,0.007 -1.21684,-0.34872 -1.52191,-0.84159 -0.33205,-0.53685 -0.3827,-1.33789 -0.0805,-1.89216 z"
       id="rect5626-8-9-1-3-4-7-1"
       inkscape:connector-curvature="0"
       sodipodi:nodetypes="sssssssss"
       inkscape:export-xdpi="300"
       inkscape:export-ydpi="300" />
    <path
       style="fill:#ff9955;fill-opacity:1;stroke:none;stroke-width:0.44723478;stroke-miterlimit:4;stroke-dasharray:none;stroke-dashoffset:0;stroke-opacity:1"
       d="m -153.59678,680.43956 c 2.66787,-1.06638 5.92815,-0.65362 8.76395,-0.19224 2.83575,0.46129 6.11582,0.75292 8.30783,2.61009 0.48171,0.40809 0.66665,1.5236 0.55017,2.14419 -0.10672,0.56986 -0.57269,1.13166 -1.11592,1.33387 -2.69257,1.00251 -5.6717,-0.9227 -8.5075,-1.38408 -2.8358,-0.46141 -6.27145,0.42022 -8.50737,-1.38412 -0.45121,-0.36402 -0.71499,-1.04454 -0.63572,-1.61875 0.0865,-0.62527 0.55831,-1.27462 1.14451,-1.50893 z"
       id="rect5626-8-9-1-3-4-7-6"
       inkscape:connector-curvature="0"
       sodipodi:nodetypes="sssssssss"
       inkscape:export-xdpi="300"
       inkscape:export-ydpi="300" />
    <path
       style="fill:#ff9955;fill-opacity:1;stroke:none;stroke-width:0.44723478;stroke-miterlimit:4;stroke-dasharray:none;stroke-dashoffset:0;stroke-opacity:1"
       d="m -163.27337,662.07172 c 1.21675,0.76365 2.60246,1.65877 3.45625,2.88744 0.85391,1.22876 -0.0213,3.39731 0.66432,4.68725 0.68146,1.28158 3.10574,1.82232 3.6973,3.20783 0.59159,1.38555 0.54792,3.00959 0.28509,4.43696 -0.13359,0.72573 -0.83878,1.43607 -1.40857,1.70772 -0.52329,0.24945 -1.25176,0.20384 -1.7352,-0.11604 -1.19811,-0.79258 -0.25036,-2.88256 -0.76191,-4.28649 -0.51155,-1.40391 -2.48243,-2.12182 -3.13121,-3.40354 -0.64894,-1.28156 -0.0609,-3.29501 -0.88949,-4.53831 -0.82863,-1.24337 -3.07417,-1.71678 -3.00375,-3.15163 0.0285,-0.57894 0.42288,-1.19301 0.93373,-1.46712 0.55621,-0.29853 1.35877,-0.29978 1.89344,0.0356 z"
       id="rect5626-6-01-6-9-9-1-4"
       inkscape:connector-curvature="0"
       sodipodi:nodetypes="sssssssssssss"
       inkscape:export-xdpi="300"
       inkscape:export-ydpi="300" />
    <path
       style="fill:#ff9955;fill-opacity:1;stroke:none;stroke-width:0.44723478;stroke-miterlimit:4;stroke-dasharray:none;stroke-dashoffset:0;stroke-opacity:1"
       id="path5484-0-5-8-8-6-7-4"
       sodipodi:type="arc"
       sodipodi:cx="-141.85448"
       sodipodi:cy="669.28149"
       sodipodi:rx="3.3554192"
       sodipodi:ry="3.3554192"
       sodipodi:start="3.5680464"
       sodipodi:end="3.5609778"
       sodipodi:open="true"
       d="m -144.90938,667.89354 a 3.3554192,3.3554192 0 0 1 4.43745,-1.6694 3.3554192,3.3554192 0 0 1 1.67724,4.4345 3.3554192,3.3554192 0 0 1 -4.43152,1.68507 3.3554192,3.3554192 0 0 1 -1.6929,-4.42854"
       inkscape:export-xdpi="300"
       inkscape:export-ydpi="300" />
  </g>
</svg>
